<svg xmlns="http://www.w3.org/2000/svg" xmlns:xlink="http://www.w3.org/1999/xlink" viewBox="0 0 29 29">
  <defs>
    <clipPath id="a">
      <path d="M7.3,9.7,6.5,7.5a.8.8,0,0,1,1-1l2.2.7,1.8-1.4a.7.7,0,0,1,1.2.6V8.8l1.9,1.3a.7.7,0,0,1-.2,1.3l-2.2.7-.7,2.2a.8.8,0,0,1-1.3.2L8.8,12.7H6.5a.7.7,0,0,1-.6-1.2Z" fill="none"/>
    </clipPath>
    <clipPath id="b">
      <path d="M13.2,13.2a2.3,2.3,0,0,1,1.5-.5l8.9,8.9a1.4,1.4,0,0,1-1.9,1.9l-8.9-8.9A2.3,2.3,0,0,1,13.2,13.2Z" fill="none"/>
    </clipPath>
  </defs>
  <title>selection-tool__wand</title>
  <g>
    <g clip-path="url(#a)">
      <rect width="20.8" height="20.78" stroke=""/>
    </g>
    <g clip-path="url(#b)">
      <rect x="7.8" y="7.8" width="21.2" height="21.23" stroke=""/>
    </g>
  </g>
</svg>
