<svg xmlns="http://www.w3.org/2000/svg" viewBox="0 0 18.1 18.1">
  <title>selection-tools__eye-dropper</title>
  <g>
    <path d="M9.7,6,8.2,4.5a.9.9,0,0,1,0-1.3L9.3,2.1a.9.9,0,0,1,1.3,0l1.1,1.1a.6.6,0,0,0,.8,0L15.2.5a1.7,1.7,0,0,1,2.4,2.4L15,5.6a.6.6,0,0,0,0,.8l1.1,1.1a.9.9,0,0,1,0,1.3L15,9.9a.9.9,0,0,1-1.3,0L12.1,8.4Z" stroke=""/>
    <path d="M.7,17.5h0s-.5-2.2.5-3.2l1.1-.8.6-.8L8.5,7l2.7,2.7L5.4,15.4l-.8.5L3.8,17C2.8,18,.7,17.5.7,17.5Z" fill="none" stroke="" stroke-linejoin="round" stroke-width="1.06"/>
  </g>
</svg>
