<svg xmlns="http://www.w3.org/2000/svg" viewBox="0 0 19 19">
  <g>
    <rect x="17.2" y="17.2" width="1.8" height="1.81" rx="0.3" ry="0.3" fill=""/>
    <rect x="3.5" y="17.2" width="1.7" height="1.81" rx="0.3" ry="0.3" fill=""/>
    <rect x="6.9" y="17.2" width="1.7" height="1.81" rx="0.3" ry="0.3" fill=""/>
    <rect x="10.4" y="17.2" width="1.7" height="1.81" rx="0.3" ry="0.3" fill=""/>
    <rect x="13.8" y="17.2" width="1.7" height="1.81" rx="0.3" ry="0.3" fill=""/>
    <rect y="17.2" width="1.8" height="1.81" rx="0.3" ry="0.3" fill=""/>
    <rect y="6.9" width="1.8" height="1.71" rx="0.3" ry="0.3" fill=""/>
    <rect y="10.4" width="1.8" height="1.71" rx="0.3" ry="0.3" fill=""/>
    <rect y="13.8" width="1.8" height="1.71" rx="0.3" ry="0.3" fill=""/>
    <rect y="3.5" width="1.8" height="1.71" rx="0.3" ry="0.3" fill=""/>
    <rect width="1.8" height="1.81" rx="0.3" ry="0.3" fill=""/>
    <rect x="13.8" width="1.7" height="1.81" rx="0.3" ry="0.3" fill=""/>
    <rect x="10.4" width="1.7" height="1.81" rx="0.3" ry="0.3" fill=""/>
    <rect x="3.5" width="1.7" height="1.81" rx="0.3" ry="0.3" fill=""/>
    <rect x="6.9" width="1.7" height="1.81" rx="0.3" ry="0.3" fill=""/>
    <rect x="17.2" width="1.8" height="1.81" rx="0.3" ry="0.3" fill=""/>
    <rect x="17.2" y="13.8" width="1.8" height="1.71" rx="0.3" ry="0.3" fill=""/>
    <rect x="17.2" y="10.4" width="1.8" height="1.71" rx="0.3" ry="0.3" fill=""/>
    <rect x="17.2" y="3.5" width="1.8" height="1.71" rx="0.3" ry="0.3" fill=""/>
    <rect x="17.2" y="6.9" width="1.8" height="1.71" rx="0.3" ry="0.3" fill=""/>
  </g>
</svg>
