<svg xmlns="http://www.w3.org/2000/svg" viewBox="0 0 18.8 18.7">
  <title>selection-tools__paint-brush</title>
  <g>
    <path d="M5.1,6.1.8,10.4a.9.9,0,0,0,0,1.2l6.3,6.3a.9.9,0,0,0,1.2,0l4.3-4.3Z" fill="none" stroke="" stroke-miterlimit="10" stroke-width="1.15"/>
    <polygon points="1.2 12 5 8.9 1.9 12.7 1.2 12" stroke=""/>
    <polygon points="2.5 13.3 5.2 11.1 3.1 13.9 2.5 13.3" stroke=""/>
    <polygon points="3.6 14.4 7.4 11.3 4.3 15.1 3.6 14.4" stroke=""/>
    <polygon points="4.9 15.7 7.6 13.6 5.5 16.3 4.9 15.7" stroke=""/>
    <polygon points="6 16.8 9.9 13.8 6.8 17.6 6 16.8" stroke=""/>
    <path d="M14,8l-.5-.5,4.2-4.2A1.6,1.6,0,0,0,15.5,1L11.3,5.3l-.5-.5a3.1,3.1,0,0,0-4.3,0L14,12.3A3.1,3.1,0,0,0,14,8Z" fill="none" stroke="" stroke-miterlimit="10" stroke-width="1.15"/>
  </g>
</svg>
