<svg xmlns="http://www.w3.org/2000/svg" viewBox="0 0 19 19">
  <g>
    <path d="M18.5,3.1A1.8,1.8,0,0,0,15.9.5L13.1,3.3a.6.6,0,0,1-.8,0L11.1,2.2a1,1,0,0,0-1.4,0L8.5,3.3a1,1,0,0,0,0,1.4l1.6,1.6,2.6,2.6,1.6,1.6a1,1,0,0,0,1.4,0l1.2-1.2a1,1,0,0,0,0-1.4L15.7,6.7a.6.6,0,0,1,0-.8Z" fill=""/>
    <path d="M9.4,6.8,9,6.7l-.4.2-5.9,6-.6.8-1.2.9C-.4,15.8.1,18.3.1,18.4a.6.6,0,0,0,.4.4H1.9a3.6,3.6,0,0,0,2.6-.9L5.3,17l.7-.5h.1l6-6a.6.6,0,0,0,0-.8Zm-4,8.8-.7.5H4.5l-.8,1.1a3.2,3.2,0,0,1-2.5.5,3.2,3.2,0,0,1,.4-2.4l1.2-.9h.1l.6-.8L9,8l2,2Z" fill=""/>
  </g>
</svg>
