<svg xmlns="http://www.w3.org/2000/svg" viewBox="0 0 18.7 18.7">
  <g>
    <path d="M.4,9.9a1.4,1.4,0,0,0,0,2l6.3,6.3a1.4,1.4,0,0,0,1,.4h0a1.4,1.4,0,0,0,1-.4l4.7-4.7L5.1,5.3Zm7.5,7.5H7.5L7,16.9l3-3a.2.2,0,0,0,0-.4H9.7l-3,3-.9-.9,2-2a.2.2,0,0,0,0-.4H7.5l-2,2-.9-.9,3-3a.2.2,0,0,0,0-.4H7.3l-3,3-.9-.9,2-2a.2.2,0,0,0,0-.4H5l-2,2L2.1,12l3-3a.2.2,0,0,0,0-.4H4.8l-3,3-.5-.5a.3.3,0,0,1,0-.4L5.1,6.9l6.7,6.7Z" fill=""/>
    <path d="M18.7,2.1A2.1,2.1,0,0,0,15.1.6L11.3,4.5h-.1a3.5,3.5,0,0,0-5,0l-.4.4L14,12.9l.4-.4a3.5,3.5,0,0,0,0-5h-.1l3.9-3.9A2.1,2.1,0,0,0,18.7,2.1Z" fill=""/>
  </g>
</svg>
