<svg xmlns="http://www.w3.org/2000/svg" viewBox="0 0 18.4 15.9">
  <title>selection-tools__paint-bucket</title>
  <g>
    <path d="M3.7,2h9.1a0,0,0,0,1,0,0V13.2a.7.7,0,0,1-.7.7H3.7a.8.8,0,0,1-.8-.8V2.7A.7.7,0,0,1,3.7,2Z" transform="translate(7.9 -3.3) rotate(45)" fill="none" stroke="" stroke-miterlimit="10" stroke-width="1.05"/>
    <circle cx="9.4" cy="6.5" r="1.1" transform="translate(-1.8 8.5) rotate(-45)" stroke=""/>
    <line x1="15.1" y1="0.8" x2="9.4" y2="6.5" fill="none" stroke="" stroke-linecap="round" stroke-miterlimit="10" stroke-width="1.05"/>
    <path d="M18.4,11a1.3,1.3,0,1,1-2.6,0,4.5,4.5,0,0,1,1.3-2.8A4.4,4.4,0,0,1,18.4,11Z" stroke=""/>
  </g>
</svg>
